HIERARCHY
ROOT Hips
{
	OFFSET 0.000000 0.000000 0.000000
	CHANNELS 6 Xposition Yposition Zposition Xrotation Yrotation Zrotation
	JOINT LeftUpLeg_virtual
	{
		OFFSET 0.000000 0.000000 0.000000
		CHANNELS 3 Xrotation Yrotation Zrotation
		JOINT LeftUpLeg
		{
			OFFSET 10.205400 -3.823500 0.155100
			CHANNELS 3 Xrotation Yrotation Zrotation
			JOINT LeftLeg
			{
				OFFSET 0.708757 -12.982077 0.567790
				CHANNELS 3 Xrotation Yrotation Zrotation
				JOINT LeftFoot
				{
					OFFSET -0.708756 -10.717838 -2.184338
					CHANNELS 3 Xrotation Yrotation Zrotation
					JOINT LeftToeBase
					{
						OFFSET 0.108149 -7.191104 7.560241
						CHANNELS 3 Xrotation Yrotation Zrotation
						JOINT LeftToe_End
						{
							OFFSET 0.070230 0.081724 4.490308
							CHANNELS 3 Xrotation Yrotation Zrotation
							End Site
							{
								OFFSET 0 0 0
							}
						}
					}
				}
			}
		}
	}
	JOINT RightUpLeg_virtual
	{
		OFFSET 0.000000 0.000000 0.000000
		CHANNELS 3 Xrotation Yrotation Zrotation
		JOINT RightUpLeg
		{
			OFFSET -10.205400 -3.823500 0.005500
			CHANNELS 3 Xrotation Yrotation Zrotation
			JOINT RightLeg
			{
				OFFSET -0.708756 -12.982134 0.610632
				CHANNELS 3 Xrotation Yrotation Zrotation
				JOINT RightFoot
				{
					OFFSET 0.708754 -10.717769 -1.945823
					CHANNELS 3 Xrotation Yrotation Zrotation
					JOINT RightToeBase
					{
						OFFSET -0.108140 -7.191069 7.372968
						CHANNELS 3 Xrotation Yrotation Zrotation
						JOINT RightToe_End
						{
							OFFSET -0.070227 0.081735 4.479403
							CHANNELS 3 Xrotation Yrotation Zrotation
							End Site
							{
								OFFSET 0 0 0
							}
						}
					}
				}
			}
		}
	}
	JOINT Spine_virtual
	{
		OFFSET 0.000000 0.000000 0.000000
		CHANNELS 3 Xrotation Yrotation Zrotation
		JOINT Spine
		{
			OFFSET 0.000000 6.876099 0.125700
			CHANNELS 3 Xrotation Yrotation Zrotation
			JOINT Spine1
			{
				OFFSET 0.000000 5.730043 0.104720
				CHANNELS 3 Xrotation Yrotation Zrotation
				JOINT Spine1_split
				{
					OFFSET 0.000000 5.730043 0.104720
					CHANNELS 3 Xrotation Yrotation Zrotation
					JOINT Spine2
					{
						OFFSET 0.000000 5.730043 0.104720
						CHANNELS 3 Xrotation Yrotation Zrotation
						JOINT Neck_virtual
						{
							OFFSET 0.000000 0.000000 0.000000
							CHANNELS 3 Xrotation Yrotation Zrotation
							JOINT Neck
							{
								OFFSET 0.000000 10.314075 0.188496
								CHANNELS 3 Xrotation Yrotation Zrotation
								JOINT Head
								{
									OFFSET 0.000000 7.643700 -2.377400
									CHANNELS 3 Xrotation Yrotation Zrotation
									JOINT HeadTop_End
									{
										OFFSET 0.000000 43.788605 -13.619600
										CHANNELS 3 Xrotation Yrotation Zrotation
										End Site
										{
											OFFSET 0 0 0
										}
									}
								}
							}
						}
						JOINT LeftShoulder_virtual
						{
							OFFSET 0.000000 0.000000 0.000000
							CHANNELS 3 Xrotation Yrotation Zrotation
							JOINT LeftShoulder
							{
								OFFSET 2.196100 4.412489 0.087492
								CHANNELS 3 Xrotation Yrotation Zrotation
								JOINT LeftShoulder_split
								{
									OFFSET 2.196100 4.412489 0.087492
									CHANNELS 3 Xrotation Yrotation Zrotation
									JOINT LeftArm
									{
										OFFSET 8.771219 -2.981674 -0.026999
										CHANNELS 3 Xrotation Yrotation Zrotation
										JOINT LeftForeArm
										{
											OFFSET 8.512804 0.000000 -0.000000
											CHANNELS 3 Xrotation Yrotation Zrotation
											JOINT LeftHand
											{
												OFFSET 18.484802 0.000000 -0.000000
												CHANNELS 3 Xrotation Yrotation Zrotation
												End Site
												{
													OFFSET 0 0 0
												}
											}
										}
									}
								}
							}
						}
						JOINT RightShoulder_virtual
						{
							OFFSET 0.000000 0.000000 0.000000
							CHANNELS 3 Xrotation Yrotation Zrotation
							JOINT RightShoulder
							{
								OFFSET -2.196100 4.412496 0.070690
								CHANNELS 3 Xrotation Yrotation Zrotation
								JOINT RightShoulder_split
								{
									OFFSET -2.196100 4.412496 0.070690
									CHANNELS 3 Xrotation Yrotation Zrotation
									JOINT RightArm
									{
										OFFSET -8.771282 -2.981682 -0.094208
										CHANNELS 3 Xrotation Yrotation Zrotation
										JOINT RightForeArm
										{
											OFFSET -8.494598 0.000000 0.000000
											CHANNELS 3 Xrotation Yrotation Zrotation
											JOINT RightHand
											{
												OFFSET -18.483803 0.000000 0.000001
												CHANNELS 3 Xrotation Yrotation Zrotation
												End Site
												{
													OFFSET 0 0 0
												}
											}
										}
									}
								}
							}
						}
					}
				}
			}
		}
	}
}
MOTION
Frames: 9
Frame Time: 0.03333333
-1.073576 33.169106 0.114964 0.000000 0.000000 0.000000 1.848843 2.653637 -1.629332 -25.499104 10.937748 10.708352 47.006946 -1.374682 1.494046 -11.233613 -0.277089 -4.939795 -4.893002 -0.653587 -0.251040 0.000000 0.000000 0.000000 3.999740 3.408089 -1.206965 -14.321289 -3.879336 2.527623 20.638071 1.215174 -1.626673 -14.917886 0.795399 4.882238 -0.753625 0.385508 1.640009 0.000000 0.000000 0.000000 0.939613 1.121793 -1.085361 6.395290 -0.741134 1.036515 2.618843 -1.481874 1.633318 1.015298 -0.182481 0.723446 0.000000 0.000000 0.000000 2.646650 -1.463815 1.289857 -2.247126 4.577487 -0.813476 -1.794630 -0.130707 0.026423 0.000000 0.000000 0.000000 2.754847 -1.729776 1.264887 1.206457 -10.241720 -14.617223 1.556510 2.805275 -2.772880 11.940578 -22.747148 -47.930781 -0.822477 -21.924865 -2.299258 0.000000 0.000000 0.000000 1.491715 -1.416413 2.465725 0.687406 3.143259 16.279981 0.591747 0.139415 -2.763119 7.363474 23.003427 48.084166 -0.316969 33.590037 1.607687 0.000000 0.000000 0.000000 
-0.346418 33.073513 0.742855 0.000000 0.000000 0.000000 2.167837 2.632514 -1.393996 -25.140948 9.798098 11.758653 46.137996 -0.655754 1.006887 -11.871040 0.044995 -3.979929 -3.831843 -0.317266 -1.083078 0.000000 0.000000 0.000000 4.347717 3.192393 -0.969562 -13.982461 -3.085097 1.426936 21.598807 1.628461 -1.785322 -15.524002 0.548054 4.338745 0.179964 0.172432 1.628655 0.000000 0.000000 0.000000 1.439963 1.180777 -1.242654 6.392131 -0.237600 1.056603 2.897800 -1.237811 1.494538 0.858025 0.741451 0.673581 0.000000 0.000000 0.000000 2.724180 -1.221637 1.123415 -2.237923 4.071294 -0.280049 -2.163690 -0.287054 -0.037772 0.000000 0.000000 0.000000 3.036389 -1.415610 1.182568 1.132805 -9.698908 -14.801682 0.765989 3.561392 -3.428626 12.507343 -21.117463 -48.184365 -0.888946 -21.155982 -2.366170 0.000000 0.000000 0.000000 1.599843 -1.162064 2.206535 0.449937 3.221110 16.060288 1.138398 0.778794 -3.149239 6.677290 23.540382 47.867588 -0.217954 37.000064 1.498128 0.000000 0.000000 0.000000 
0.797009 32.966885 1.652893 0.000000 0.000000 0.000000 2.400209 2.442989 -0.918672 -25.411398 7.946697 14.151044 44.453446 0.554852 0.401588 -10.964224 1.235241 -5.211087 -2.281141 0.102683 -2.218636 0.000000 0.000000 0.000000 4.391627 3.415275 -0.603120 -12.958104 -2.200543 -0.611208 23.402620 2.531573 -2.078658 -16.733134 0.034878 4.567974 0.404919 0.101089 1.296490 0.000000 0.000000 0.000000 1.807364 1.389067 -1.091589 6.626976 0.848604 0.940616 3.164720 -0.262307 1.177428 0.845219 1.054427 0.671547 0.000000 0.000000 0.000000 2.857242 -0.267500 0.722442 -2.025448 3.338488 -0.007486 -2.677473 -1.734502 -0.042406 0.000000 0.000000 0.000000 3.215401 -0.417011 0.869314 1.004708 -9.586869 -15.301220 -0.157733 3.754798 -3.815586 11.954907 -18.443302 -48.522767 -0.978338 -20.760654 -2.330548 0.000000 0.000000 0.000000 1.731625 -0.185790 1.732143 0.184106 3.954027 15.934242 1.855437 0.672250 -3.318527 7.210897 23.694478 46.887616 -0.024594 43.318521 1.182771 0.000000 0.000000 0.000000 
2.153853 32.792847 2.704708 0.000000 0.000000 0.000000 2.401557 2.199558 -0.360754 -26.247102 5.635915 17.382529 41.887446 1.883670 -0.120471 -8.228220 2.616457 -8.778186 -1.343841 0.486300 -3.032494 0.000000 0.000000 0.000000 4.105177 3.708968 -0.187318 -11.307824 -1.426470 -3.465878 25.331109 3.911377 -2.344040 -18.114304 -0.506612 5.684065 0.076809 0.178461 0.722174 0.000000 0.000000 0.000000 1.859447 1.548009 -0.740621 6.982419 2.344388 0.758835 3.426154 1.236896 0.748692 1.106509 0.584198 0.636365 0.000000 0.000000 0.000000 3.054737 1.243564 0.198134 -1.695045 2.487765 0.012941 -3.298362 -4.272933 0.012516 0.000000 0.000000 0.000000 3.344115 1.105666 0.406266 0.835360 -9.945657 -16.091905 -0.763597 3.415053 -4.034671 10.413206 -15.077723 -48.848874 -1.021060 -20.722937 -2.176020 0.000000 0.000000 0.000000 1.903107 1.338148 1.147448 -0.110602 5.258952 15.874126 2.446821 -0.013076 -3.122987 8.693177 23.173257 45.290670 0.328230 51.097605 0.602283 0.000000 0.000000 0.000000 
3.575267 32.533096 3.821049 0.000000 0.000000 0.000000 2.158353 1.817545 0.110393 -27.484644 3.307907 20.971288 38.903269 3.143098 -0.496998 -4.129222 3.349281 -14.024237 -1.386368 0.750004 -3.095799 0.000000 0.000000 0.000000 3.512049 3.736132 0.136837 -9.093412 -0.992919 -6.873707 26.607343 5.537263 -2.434167 -19.346890 -0.948824 7.472113 -0.172422 0.358313 0.148851 0.000000 0.000000 0.000000 1.754252 1.666767 -0.416579 7.361354 4.009955 0.602193 3.679437 3.028907 0.285531 1.400494 -0.030912 0.678057 0.000000 0.000000 0.000000 3.297557 3.070247 -0.321607 -1.378528 1.594844 -0.175862 -3.914581 -7.468399 0.122279 0.000000 0.000000 0.000000 3.436234 2.934741 -0.095049 0.630914 -10.703897 -17.187760 -0.851006 2.916012 -4.103164 8.264874 -11.248216 -49.171635 -0.947013 -20.949747 -1.900066 0.000000 0.000000 0.000000 2.102887 3.176551 0.577508 -0.407852 7.036528 15.864381 2.802966 -0.675597 -2.864990 10.361217 21.873848 43.351429 0.812867 59.066909 -0.193421 0.000000 0.000000 0.000000 
4.896544 32.197926 4.914958 0.000000 0.000000 0.000000 1.705219 1.233424 0.331616 -28.926452 1.360041 24.336814 35.893150 4.333260 -0.749569 0.382080 2.824013 -19.673791 -1.870637 0.845485 -2.518749 0.000000 0.000000 0.000000 2.787068 3.563462 0.216922 -6.452370 -0.938377 -10.430932 26.752053 7.196656 -2.243759 -20.480614 -1.254094 9.734509 -0.135295 0.535945 -0.216496 0.000000 0.000000 0.000000 1.511576 1.569415 -0.305957 7.719388 5.594827 0.542665 3.904341 4.890933 -0.126952 1.705169 -0.739957 0.608595 0.000000 0.000000 0.000000 3.523754 4.980738 -0.736642 -1.182839 0.737044 -0.445987 -4.306406 -10.849756 0.303609 0.000000 0.000000 0.000000 3.526565 4.846874 -0.546663 0.389957 -11.716378 -18.438553 -0.597642 2.506622 -4.175664 5.892213 -7.305868 -49.530705 -0.758625 -21.369423 -1.523680 0.000000 0.000000 0.000000 2.340579 5.095825 0.090306 -0.695490 9.132580 15.852917 2.766817 -0.838251 -2.718521 11.475561 19.741134 41.454747 1.308385 66.210208 -1.050681 0.000000 0.000000 0.000000 
6.059845 31.812412 5.915261 0.000000 0.000000 0.000000 1.050531 0.759825 0.216782 -30.645341 -0.168600 27.284024 33.439418 5.115373 -0.875329 4.235820 0.866677 -24.921909 -2.088043 0.808983 -1.548855 0.000000 0.000000 0.000000 2.124761 3.262229 -0.013044 -3.453453 -1.195395 -13.802752 25.725486 8.764404 -1.826184 -21.573229 -1.362596 12.225662 -0.361517 0.628894 -0.301387 0.000000 0.000000 0.000000 1.227610 1.352614 -0.498341 8.027557 7.002858 0.602436 4.096342 6.684219 -0.459690 1.788753 -1.297612 0.623540 0.000000 0.000000 0.000000 3.724288 6.807749 -1.016393 -1.169996 0.044926 -0.782222 -4.376886 -14.063587 0.582758 0.000000 0.000000 0.000000 3.640632 6.691331 -0.902007 0.128563 -12.804236 -19.724997 -0.252762 2.129930 -4.446437 3.636004 -3.449215 -49.917782 -0.427193 -21.965730 -1.052861 0.000000 0.000000 0.000000 2.556338 6.916447 -0.303733 -0.999754 11.284906 15.829885 2.484315 -0.335367 -2.652146 11.573123 16.965538 39.888271 1.737656 72.081479 -1.834413 0.000000 0.000000 0.000000 
7.023065 31.414646 6.747350 0.000000 0.000000 0.000000 0.444670 0.294986 -0.205179 -32.502302 -1.383269 29.652973 32.054368 5.426129 -0.991073 6.432885 -2.077029 -29.007062 -1.985967 0.657976 -0.310792 0.000000 0.000000 0.000000 1.487835 2.892236 -0.482002 -0.211410 -1.630611 -16.595527 23.917458 10.105776 -1.273186 -22.885215 -1.293878 14.580656 -0.965440 0.583135 -0.093471 0.000000 0.000000 0.000000 0.908224 0.969515 -0.954239 8.325727 8.165039 0.779975 4.251976 8.349981 -0.730570 1.493443 -1.578041 0.730042 0.000000 0.000000 0.000000 3.867972 8.458501 -1.193930 -1.287526 -0.423223 -1.123278 -4.132626 -16.692084 0.965603 0.000000 0.000000 0.000000 3.784557 8.390715 -1.165249 -0.139350 -13.873489 -20.986200 0.125753 1.860274 -4.881213 1.701334 0.103628 -50.325039 -0.015099 -22.832098 -0.543520 0.000000 0.000000 0.000000 2.752863 8.564778 -0.632055 -1.296444 13.317160 15.824819 2.132540 0.650428 -2.619127 10.662044 13.834464 38.661927 1.932578 76.503624 -2.289198 0.000000 0.000000 0.000000 
7.771179 31.009113 7.520996 0.000000 0.000000 0.000000 0.000825 -0.302451 -0.809319 -34.047759 -2.417336 31.247569 31.985404 5.502299 -1.144923 6.640579 -5.069080 -31.162506 -1.923293 0.438382 0.893596 0.000000 0.000000 0.000000 0.995971 2.469457 -1.094292 2.764372 -2.065313 -18.561365 22.173618 11.166000 -0.744330 -24.680728 -1.104643 16.380114 -1.503064 0.415351 0.290164 0.000000 0.000000 0.000000 0.559952 0.439476 -1.525353 8.627157 9.118533 1.010009 4.377964 9.862030 -0.965338 1.283618 -1.864870 0.742166 0.000000 0.000000 0.000000 3.930190 9.929598 -1.334976 -1.474133 -0.656287 -1.393904 -3.598198 -18.545453 1.397410 0.000000 0.000000 0.000000 3.948456 9.930777 -1.393578 -0.422558 -14.907649 -22.167891 0.575923 1.793327 -5.314151 0.103121 3.342256 -50.666350 0.418500 -23.996825 -0.067907 0.000000 0.000000 0.000000 2.956311 10.048333 -0.940300 -1.593799 15.132294 15.903132 1.641606 1.819320 -2.544920 8.898901 10.584924 37.724863 1.564634 79.304343 -2.072136 0.000000 0.000000 0.000000 
